# xmcd
#
# Track frame offsets:
#	150
#	20275
#	38307
#	60562
#	85387
#	107015
#	125440
#	145152
#	162422
#	184635
#
# Disc length: 2774 seconds
#
# Revision: 0
# Processed by: cddbd v1.5.2PL0 Copyright (c) Steve Scherf et al.
# Submitted via: EasyCDDAExtractor 16.0.9.1
#
DISCID=770ad40a
DTITLE=Khánh Hà - KH33: Đời Đá vàng
DYEAR=1996
DGENRE=Pop
TTITLE0=Khánh Hà - Một Mình
TTITLE1=Khánh Hà and Tô Chấn Phong - Ngày Vui Bên Nhau
TTITLE2=Khánh Hà - Giấc Mơ Trong Mộng
TTITLE3=Khánh Hà - Này Em Có Nhớ
TTITLE4=Khánh Hà - Lời Yêu Cuối
TTITLE5=Khánh Hà - Cho Em Quên Tuổi Ngọc
TTITLE6=Khánh Hà - Đời Đá Vàng
TTITLE7=Khánh Hà - Một Trời Yêu Thương
TTITLE8=Khánh Hà - Bâng Khuâng Chiều Nội Trú
TTITLE9=Khánh Hà - Đừng Lừa Dối Nhau
EXTD=
EXTT0=
EXTT1=
EXTT2=
EXTT3=
EXTT4=
EXTT5=
EXTT6=
EXTT7=
EXTT8=
EXTT9=
PLAYORDER=
